<mxfile host="app.diagrams.net" modified="2024-07-12T13:51:53.510Z" agent="Mozilla/5.0 (Macintosh; Intel Mac OS X 10_15_7) AppleWebKit/537.36 (KHTML, like Gecko) Chrome/126.0.0.0 Safari/537.36" etag="Omc1tkFO8YwL_3OqWxe6" version="24.6.5" type="github">
  <diagram name="Page-1" id="XD5cVFTVODnbs-Ls5sL5">
    <mxGraphModel dx="1340" dy="947" grid="1" gridSize="10" guides="1" tooltips="1" connect="1" arrows="1" fold="1" page="1" pageScale="1" pageWidth="850" pageHeight="1100" math="0" shadow="0">
      <root>
        <mxCell id="0" />
        <mxCell id="1" parent="0" />
        <mxCell id="CT2DmHL37CZx1ZJxqDK_-2" value="Filme" style="rounded=0;whiteSpace=wrap;html=1;sketch=1;curveFitting=1;jiggle=2;" vertex="1" parent="1">
          <mxGeometry x="150" y="460" width="90" height="40" as="geometry" />
        </mxCell>
        <mxCell id="CT2DmHL37CZx1ZJxqDK_-3" value="Personen" style="rounded=0;whiteSpace=wrap;html=1;sketch=1;curveFitting=1;jiggle=2;" vertex="1" parent="1">
          <mxGeometry x="500" y="460" width="90" height="40" as="geometry" />
        </mxCell>
        <mxCell id="CT2DmHL37CZx1ZJxqDK_-4" value="wirkt mit" style="rhombus;whiteSpace=wrap;html=1;sketch=1;curveFitting=1;jiggle=2;" vertex="1" parent="1">
          <mxGeometry x="320" y="363" width="110" height="80" as="geometry" />
        </mxCell>
        <mxCell id="CT2DmHL37CZx1ZJxqDK_-5" value="fÃ¼hrt Regie" style="rhombus;whiteSpace=wrap;html=1;sketch=1;curveFitting=1;jiggle=2;" vertex="1" parent="1">
          <mxGeometry x="320" y="510" width="110" height="80" as="geometry" />
        </mxCell>
        <mxCell id="CT2DmHL37CZx1ZJxqDK_-6" value="" style="endArrow=none;html=1;rounded=0;exitX=1;exitY=0.5;exitDx=0;exitDy=0;entryX=0;entryY=1;entryDx=0;entryDy=0;" edge="1" parent="1" source="CT2DmHL37CZx1ZJxqDK_-5" target="CT2DmHL37CZx1ZJxqDK_-3">
          <mxGeometry width="50" height="50" relative="1" as="geometry">
            <mxPoint x="400" y="510" as="sourcePoint" />
            <mxPoint x="450" y="460" as="targetPoint" />
          </mxGeometry>
        </mxCell>
        <mxCell id="CT2DmHL37CZx1ZJxqDK_-7" value="" style="endArrow=none;html=1;rounded=0;exitX=1;exitY=0.5;exitDx=0;exitDy=0;entryX=0;entryY=0;entryDx=0;entryDy=0;" edge="1" parent="1" source="CT2DmHL37CZx1ZJxqDK_-4" target="CT2DmHL37CZx1ZJxqDK_-3">
          <mxGeometry width="50" height="50" relative="1" as="geometry">
            <mxPoint x="440" y="560" as="sourcePoint" />
            <mxPoint x="490" y="510" as="targetPoint" />
          </mxGeometry>
        </mxCell>
        <mxCell id="CT2DmHL37CZx1ZJxqDK_-8" value="" style="endArrow=none;html=1;rounded=0;exitX=0;exitY=0.5;exitDx=0;exitDy=0;entryX=1;entryY=1;entryDx=0;entryDy=0;" edge="1" parent="1" source="CT2DmHL37CZx1ZJxqDK_-5" target="CT2DmHL37CZx1ZJxqDK_-2">
          <mxGeometry width="50" height="50" relative="1" as="geometry">
            <mxPoint x="450" y="570" as="sourcePoint" />
            <mxPoint x="500" y="520" as="targetPoint" />
          </mxGeometry>
        </mxCell>
        <mxCell id="CT2DmHL37CZx1ZJxqDK_-9" value="" style="endArrow=none;html=1;rounded=0;exitX=0;exitY=0.5;exitDx=0;exitDy=0;entryX=1;entryY=0;entryDx=0;entryDy=0;" edge="1" parent="1" source="CT2DmHL37CZx1ZJxqDK_-4" target="CT2DmHL37CZx1ZJxqDK_-2">
          <mxGeometry width="50" height="50" relative="1" as="geometry">
            <mxPoint x="460" y="580" as="sourcePoint" />
            <mxPoint x="510" y="530" as="targetPoint" />
          </mxGeometry>
        </mxCell>
        <mxCell id="CT2DmHL37CZx1ZJxqDK_-10" value="N" style="text;html=1;align=center;verticalAlign=middle;whiteSpace=wrap;rounded=0;" vertex="1" parent="1">
          <mxGeometry x="260" y="400" width="30" height="30" as="geometry" />
        </mxCell>
        <mxCell id="CT2DmHL37CZx1ZJxqDK_-12" value="M" style="text;html=1;align=center;verticalAlign=middle;whiteSpace=wrap;rounded=0;" vertex="1" parent="1">
          <mxGeometry x="460" y="400" width="30" height="30" as="geometry" />
        </mxCell>
        <mxCell id="CT2DmHL37CZx1ZJxqDK_-13" value="N" style="text;html=1;align=center;verticalAlign=middle;whiteSpace=wrap;rounded=0;" vertex="1" parent="1">
          <mxGeometry x="260" y="530" width="30" height="30" as="geometry" />
        </mxCell>
        <mxCell id="CT2DmHL37CZx1ZJxqDK_-14" value="1" style="text;html=1;align=center;verticalAlign=middle;whiteSpace=wrap;rounded=0;" vertex="1" parent="1">
          <mxGeometry x="460" y="530" width="30" height="30" as="geometry" />
        </mxCell>
      </root>
    </mxGraphModel>
  </diagram>
</mxfile>
